<svg width="120" height="120" viewBox="0 0 120 120" fill="none" xmlns="http://www.w3.org/2000/svg">
  <!-- Outer frame -->
  <rect x="10" y="10" width="100" height="100" stroke="#1a1a1a" stroke-width="2" fill="none"/>

  <!-- Grid pattern (representing blockchain blocks) -->
  <line x1="35" y1="10" x2="35" y2="110" stroke="#1a1a1a" stroke-width="1" opacity="0.3"/>
  <line x1="60" y1="10" x2="60" y2="110" stroke="#1a1a1a" stroke-width="1" opacity="0.3"/>
  <line x1="85" y1="10" x2="85" y2="110" stroke="#1a1a1a" stroke-width="1" opacity="0.3"/>
  <line x1="10" y1="35" x2="110" y2="35" stroke="#1a1a1a" stroke-width="1" opacity="0.3"/>
  <line x1="10" y1="60" x2="110" y2="60" stroke="#1a1a1a" stroke-width="1" opacity="0.3"/>
  <line x1="10" y1="85" x2="110" y2="85" stroke="#1a1a1a" stroke-width="1" opacity="0.3"/>

  <!-- Block 'B' -->
  <rect x="25" y="25" width="15" height="40" fill="#1a1a1a"/>
  <rect x="40" y="25" width="10" height="15" fill="#1a1a1a"/>
  <rect x="40" y="50" width="10" height="15" fill="#1a1a1a"/>
  <rect x="50" y="30" width="5" height="5" fill="#f5f1e8"/>
  <rect x="50" y="55" width="5" height="5" fill="#f5f1e8"/>

  <!-- Vulnerability indicator (bug/shield hybrid) -->
  <circle cx="75" cy="47" r="20" stroke="#d97706" stroke-width="2" fill="none"/>
  <path d="M 75 35 L 65 47 L 75 59 L 85 47 Z" fill="#d97706" opacity="0.2"/>
  <circle cx="75" cy="47" r="4" fill="#d97706"/>

  <!-- Scan lines (representing analysis) -->
  <line x1="60" y1="47" x2="90" y2="47" stroke="#d97706" stroke-width="1" opacity="0.6"/>
  <line x1="60" y1="42" x2="90" y2="42" stroke="#d97706" stroke-width="0.5" opacity="0.4"/>
  <line x1="60" y1="52" x2="90" y2="52" stroke="#d97706" stroke-width="0.5" opacity="0.4"/>

  <!-- Binary/code elements -->
  <text x="20" y="95" font-family="monospace" font-size="8" fill="#1a1a1a" opacity="0.5">0101</text>
  <text x="50" y="95" font-family="monospace" font-size="8" fill="#1a1a1a" opacity="0.5">1010</text>
  <text x="80" y="95" font-family="monospace" font-size="8" fill="#1a1a1a" opacity="0.5">0101</text>
</svg>
