<svg width="96" height="96" viewBox="0 0 12 12" fill="none" xmlns="http://www.w3.org/2000/svg" style="image-rendering: pixelated">
  <!-- BlockBench Mascot - Minimal pixel art security guardian -->
  <!-- Shield body - dark -->
  <rect x="2" y="1" width="8" height="1" fill="#262626" />
  <rect x="1" y="2" width="10" height="1" fill="#262626" />
  <rect x="1" y="3" width="10" height="1" fill="#262626" />
  <rect x="1" y="4" width="10" height="1" fill="#262626" />
  <rect x="1" y="5" width="10" height="1" fill="#262626" />
  <rect x="1" y="6" width="10" height="1" fill="#262626" />
  <rect x="2" y="7" width="8" height="1" fill="#262626" />
  <rect x="2" y="8" width="8" height="1" fill="#262626" />
  <rect x="3" y="9" width="6" height="1" fill="#262626" />
  <rect x="4" y="10" width="4" height="1" fill="#262626" />
  <rect x="5" y="11" width="2" height="1" fill="#262626" />
  <!-- Eyes - cream/white -->
  <rect x="3" y="4" width="2" height="2" fill="#FAF9F7" />
  <rect x="7" y="4" width="2" height="2" fill="#FAF9F7" />
  <!-- Pupils -->
  <rect x="4" y="5" width="1" height="1" fill="#262626" />
  <rect x="8" y="5" width="1" height="1" fill="#262626" />
  <!-- Smile -->
  <rect x="4" y="7" width="1" height="1" fill="#8B7355" />
  <rect x="5" y="8" width="2" height="1" fill="#8B7355" />
  <rect x="7" y="7" width="1" height="1" fill="#8B7355" />
</svg>
